<?xml version="1.0" encoding="UTF-8"?>
<svg width="180px" height="180px" viewBox="0 0 180 180" version="1.1" xmlns="http://www.w3.org/2000/svg" xmlns:xlink="http://www.w3.org/1999/xlink">
    <!-- Generator: Sketch 58 (84663) - https://sketch.com -->
    <title>安逸花_查看额度</title>
    <desc>Created with Sketch.</desc>
    <defs>
        <linearGradient x1="38.1572231%" y1="16.1874773%" x2="38.1572231%" y2="39.1795215%" id="linearGradient-1">
            <stop stop-color="#FBBB10" offset="0%"></stop>
            <stop stop-color="#EAAD00" offset="100%"></stop>
        </linearGradient>
        <linearGradient x1="12.0708627%" y1="6.69332049%" x2="56.3476562%" y2="82.4446529%" id="linearGradient-2">
            <stop stop-color="#81DDF6" offset="0%"></stop>
            <stop stop-color="#4C7BEC" offset="100%"></stop>
        </linearGradient>
        <path d="M64.222834,119.615028 C112.042671,119.615028 128.445668,98.9900193 128.445668,73.5477814 C128.445668,38.3123045 85.6304453,0.944668842 64.222834,0.0891983806 C42.8152227,-0.76627208 0,38.3123045 0,73.5477814 C0,98.9900193 16.4029972,119.615028 64.222834,119.615028 Z" id="path-3"></path>
        <linearGradient x1="104.439805%" y1="61.0602739%" x2="4.58188676%" y2="46.7242685%" id="linearGradient-5">
            <stop stop-color="#539BF0" stop-opacity="0" offset="0%"></stop>
            <stop stop-color="#5891EE" offset="100%"></stop>
        </linearGradient>
        <path d="M47.519045,4.93573696 C57.0950224,5.16440613 69.5309319,6.15637742 84.8267735,7.91165084 C99.8632752,17.3034062 116.082378,34.0922685 123.823308,52.463788 C58.8203085,49.420972 39.6400117,32.680165 28.7477933,18.6619564 C34.6640218,13.1355698 40.9004249,8.54187922 46.8355935,5.30382049 Z" id="path-6"></path>
        <filter x="-158.8%" y="-112.5%" width="417.6%" height="325.0%" filterUnits="objectBoundingBox" id="filter-8">
            <feGaussianBlur stdDeviation="16.0557085" in="SourceGraphic"></feGaussianBlur>
        </filter>
        <linearGradient x1="39.3212386%" y1="7.82976797%" x2="50%" y2="100%" id="linearGradient-9">
            <stop stop-color="#4C7BEC" offset="0%"></stop>
            <stop stop-color="#1E57E1" offset="100%"></stop>
        </linearGradient>
        <filter x="-24.2%" y="-12.7%" width="148.4%" height="125.4%" filterUnits="objectBoundingBox" id="filter-10">
            <feGaussianBlur stdDeviation="1.78396761" in="SourceGraphic"></feGaussianBlur>
        </filter>
        <linearGradient x1="12.0708627%" y1="42.3149088%" x2="64.1835387%" y2="57.6850912%" id="linearGradient-11">
            <stop stop-color="#81CFF6" offset="0%"></stop>
            <stop stop-color="#4074F2" offset="100%"></stop>
        </linearGradient>
        <path d="M44.5519751,34.7670961 C57.2003467,34.7670961 67.6907556,33.5742836 76.0232016,31.1886588 C82.7343686,24.2512864 86.0899522,15.919279 86.0899522,6.19263667 C86.0899522,-4.99407064 62.1443249,6.83667618 45.9422341,5.96644788 C29.7401432,5.09621958 2.64578712,-0.567777625 1.22767187,6.19263667 C-0.33732118,13.6532442 3.10284429,21.4443294 11.5481683,29.5658922 C20.9023345,33.0333614 31.9036034,34.7670961 44.5519751,34.7670961 Z" id="path-12"></path>
        <linearGradient x1="94.7303185%" y1="50%" x2="11.8915264%" y2="50%" id="linearGradient-14">
            <stop stop-color="#87E7FF" offset="0%"></stop>
            <stop stop-color="#0563ED" offset="100%"></stop>
        </linearGradient>
        <linearGradient x1="0%" y1="48.57578%" x2="100%" y2="49.3355914%" id="linearGradient-15">
            <stop stop-color="#FFEE98" offset="0%"></stop>
            <stop stop-color="#EEBC00" offset="22.3801058%"></stop>
            <stop stop-color="#EEB800" offset="79.5557303%"></stop>
            <stop stop-color="#ECC200" offset="100%"></stop>
        </linearGradient>
        <path d="M38.0879759,12.4626365 C27.3387069,12.4626365 15.8776473,10.6547997 3.77412748,7.03912617 C2.53696781,6.66897561 0.574277454,5.90968338 0.285950657,4.29710036 C0.16697665,3.6316906 -0.170028223,1.1196568 0.285950657,0.766116657 C0.812949264,0.357511855 4.26080023,1.64605432 4.92655019,1.84450121 C28.3108709,8.83086944 49.1207286,8.84875111 66.7752899,1.90172255 C67.9877989,1.42607015 69.2958294,2.17888843 69.7056482,3.57902314 C70.115467,4.98273419 69.4683847,6.50446425 68.2589571,6.98190482 C58.9764079,10.6351299 48.8911685,12.4626365 38.0879759,12.4626365" id="path-16"></path>
        <filter x="-2.1%" y="-12.7%" width="104.3%" height="151.0%" filterUnits="objectBoundingBox" id="filter-18">
            <feOffset dx="0" dy="3" in="SourceAlpha" result="shadowOffsetOuter1"></feOffset>
            <feColorMatrix values="0 0 0 0 0.0196078431   0 0 0 0 0.388235294   0 0 0 0 0.929411765  0 0 0 1 0" type="matrix" in="shadowOffsetOuter1"></feColorMatrix>
        </filter>
        <filter x="-47.5%" y="-46.1%" width="195.0%" height="192.3%" filterUnits="objectBoundingBox" id="filter-19">
            <feGaussianBlur stdDeviation="1.78396761" in="SourceGraphic"></feGaussianBlur>
        </filter>
        <linearGradient x1="39.6434664%" y1="16.8638504%" x2="100%" y2="79.8058773%" id="linearGradient-20">
            <stop stop-color="#FBB024" offset="0%"></stop>
            <stop stop-color="#FDAA13" offset="31.3860104%"></stop>
            <stop stop-color="#FFC53A" offset="70.7599192%"></stop>
            <stop stop-color="#FCAB1F" offset="94.7940253%"></stop>
            <stop stop-color="#FEBE34" offset="100%"></stop>
        </linearGradient>
        <path d="M44.612354,38.45391 C42.7314875,35.1900011 42.1506465,34.8628712 40.5991443,32.4542943 C36.8557436,30.164866 33.2255678,28.8399385 28.590595,27.3335153 C24.7859501,26.096661 19.8726442,24.1102865 15.6907879,21.8781035 C7.18244399,17.3365364 5.3811481,12.4289537 3.66557612,7.5681954 C3.15755158,6.13123863 2.34483704,4.42044523 3.78819649,3.91624987 C5.23313857,3.41363012 6.36266406,4.65699475 6.86910597,6.09552713 C8.23175123,9.9526216 11.0566837,15.7903658 17.8540838,18.9195282 C21.9182801,20.7913535 26.5741908,22.6842626 30.1691141,23.9790876 C36.3679041,26.2117772 41.0447179,27.6939173 45.6467944,35.839832 C45.6933771,35.9222859 44.9923478,39.1133218 44.612354,38.45391 Z" id="path-21"></path>
        <linearGradient x1="42.2752572%" y1="9.93158288%" x2="50%" y2="100%" id="linearGradient-23">
            <stop stop-color="#FE8704" offset="0%"></stop>
            <stop stop-color="#F69E00" offset="100%"></stop>
        </linearGradient>
        <filter x="-31.9%" y="-20.3%" width="163.9%" height="140.7%" filterUnits="objectBoundingBox" id="filter-24">
            <feGaussianBlur stdDeviation="1.78396761" in="SourceGraphic"></feGaussianBlur>
        </filter>
        <linearGradient x1="67.3009006%" y1="81.5496092%" x2="32.303244%" y2="13.512772%" id="linearGradient-25">
            <stop stop-color="#FFB80A" offset="0%"></stop>
            <stop stop-color="#FFB515" offset="66.4615037%"></stop>
            <stop stop-color="#FFBC20" offset="100%"></stop>
        </linearGradient>
        <path d="M31.3896044,47.1049491 C29.2423041,38.4522191 23.5545136,32.7201495 16.8640259,27.7728886 C12.7829352,24.7549217 9.09809859,22.4594794 6.31636859,18.8703802 C1.96076504,13.2539913 0.509191309,7.6764644 0.649497866,3.25286907 C0.70287536,1.56244011 1.43755575,0.448021652 3.01884552,0.169197601 C4.60013529,-0.10962645 5.00473343,1.55751386 4.95135594,3.24794281 C4.84307588,6.6624868 6.41365417,11.686776 9.6498554,15.8607881 C11.9145862,18.7822903 15.4390259,21.3898995 19.1724004,24.149096 C26.3814123,29.4806844 33.0340423,35.5479235 35.7120674,46.3427823 C36.1192614,47.9842133 36.6436169,49.618838 35.0087405,50.0276646 C34.7616789,50.088912 34.5130923,50.1195393 34.2690809,50.1195393 C32.901092,50.1195393 31.7342705,48.4983281 31.3896044,47.1049491 Z" id="path-26"></path>
        <linearGradient x1="26.1027513%" y1="0%" x2="70.3256651%" y2="50%" id="linearGradient-28">
            <stop stop-color="#FFD63C" offset="0%"></stop>
            <stop stop-color="#FFC840" offset="100%"></stop>
        </linearGradient>
        <linearGradient x1="39.3212386%" y1="7.82976797%" x2="55.6255338%" y2="80.1796433%" id="linearGradient-29">
            <stop stop-color="#FFD040" offset="0%"></stop>
            <stop stop-color="#FFCB37" offset="100%"></stop>
        </linearGradient>
        <filter x="-226.1%" y="-33.3%" width="552.2%" height="166.7%" filterUnits="objectBoundingBox" id="filter-30">
            <feGaussianBlur stdDeviation="1.78396761" in="SourceGraphic"></feGaussianBlur>
        </filter>
        <linearGradient x1="21.875%" y1="-24.1658529%" x2="50%" y2="100%" id="linearGradient-31">
            <stop stop-color="#FFFFFF" offset="0%"></stop>
            <stop stop-color="#FFD25C" offset="66.1376963%"></stop>
            <stop stop-color="#FFC01C" offset="100%"></stop>
        </linearGradient>
        <polygon id="path-32" points="92.7971222 133.657473 92.7971222 124.025516 102.26706 124.025516 102.26706 120.061144 92.7971222 120.061144 92.7971222 116.03804 93.6608298 114.422925 102.26706 114.422925 102.26706 110.458553 95.6967122 110.458553 105.81443 90.8422502 98.9664626 90.8422502 89.7432986 109.841872 80.5201347 90.8422502 73.7030135 90.8422502 83.8207318 110.458553 77.2503842 110.458553 77.2503842 114.422925 85.8566142 114.422925 86.7203218 116.03804 86.7203218 120.061144 77.2503842 120.061144 77.2503842 124.025516 86.7203218 124.025516 86.7203218 133.657473"></polygon>
        <filter x="-23.4%" y="-10.5%" width="146.7%" height="135.0%" filterUnits="objectBoundingBox" id="filter-33">
            <feOffset dx="0" dy="3" in="SourceAlpha" result="shadowOffsetOuter1"></feOffset>
            <feGaussianBlur stdDeviation="2" in="shadowOffsetOuter1" result="shadowBlurOuter1"></feGaussianBlur>
            <feColorMatrix values="0 0 0 0 0.180392157   0 0 0 0 0.423529412   0 0 0 0 0.909803922  0 0 0 1 0" type="matrix" in="shadowBlurOuter1"></feColorMatrix>
        </filter>
        <filter x="-12.5%" y="-2.3%" width="124.9%" height="118.7%" filterUnits="objectBoundingBox" id="filter-34">
            <feOffset dx="0" dy="0" in="SourceAlpha" result="shadowOffsetInner1"></feOffset>
            <feComposite in="shadowOffsetInner1" in2="SourceAlpha" operator="arithmetic" k2="-1" k3="1" result="shadowInnerInner1"></feComposite>
            <feColorMatrix values="0 0 0 0 1   0 0 0 0 1   0 0 0 0 1  0 0 0 1 0" type="matrix" in="shadowInnerInner1"></feColorMatrix>
        </filter>
    </defs>
    <g id="李向楠" stroke="none" stroke-width="1" fill="none" fill-rule="evenodd">
        <g id="安逸花_查看额度-">
            <ellipse id="椭圆形备份-2" fill="#DBEBFF" cx="90.9" cy="147.696429" rx="76.5" ry="19.6714286"></ellipse>
            <path d="M151.582228,90.3969164 C154.673747,92.9511666 158.522681,96.7029877 161.500267,102.444167 C164.477853,108.185346 166.035063,113.159882 167.439999,115.268395 C167.175365,115.433763 166.469693,115.635957 165.444855,115.877766 C164.981075,114.916419 164.449102,114.044031 163.848809,113.260591 C164.220406,114.189872 164.561888,115.106579 164.873256,116.010712 L163.627685,116.283529 L163.627685,116.283529 C162.896215,114.358946 161.750925,112.292234 160.190599,110.083676 C161.258658,112.485202 162.068659,114.623092 162.620603,116.497346 L159.513758,117.152558 C159.328577,117.192078 159.141624,117.232126 158.953061,117.272704 C158.395291,115.914816 157.748889,114.738295 157.013684,113.741885 C157.2064,115.057019 157.424324,116.327763 157.667457,117.554118 L156.319292,117.855525 C149.954972,119.301721 142.695132,121.305564 139.783351,123.984823 C139.125235,120.151046 147.281482,110.382519 146.111661,102.70199 L145.988519,101.917265 C144.803506,94.587294 143.797768,94.560022 145.040681,92.0116742 C146.882796,88.2347779 148.490709,87.8426663 151.582228,90.3969164 Z" id="路径" fill="url(#linearGradient-1)"></path>
            <g id="路径-30" transform="translate(25.328571, 39.077224)">
                <mask id="mask-4" fill="white">
                    <use xlink:href="#path-3"></use>
                </mask>
                <use id="蒙版" fill="url(#linearGradient-2)" xlink:href="#path-3"></use>
                <mask id="mask-7" fill="white">
                    <use xlink:href="#path-6"></use>
                </mask>
                <use id="形状结合" fill="url(#linearGradient-5)" xlink:href="#path-6"></use>
                <ellipse id="椭圆形" fill="#87E7FF" filter="url(#filter-8)" mask="url(#mask-7)" cx="27.651498" cy="32.2006154" rx="15.1637247" ry="21.4076113"></ellipse>
                <path d="M116.293239,61.1476553 C118.760728,63.6345596 122.972645,71.1811119 124.451326,77.8625616 L124.538405,78.2704986 C125.451841,82.7155077 126.58971,86.8026689 127.630919,90.1880344 L127.993868,91.353169 C128.407074,92.6634499 128.740447,94.5826919 129.111343,95.3168248 C128.652384,95.5295671 127.757085,95.7047871 126.561037,95.8935766 C126.017973,94.4584406 125.354711,93.1399015 124.572294,91.9367971 C125.025645,93.3242117 125.4293,94.6829011 125.783259,96.0128652 L124.070136,96.2655417 L124.070136,96.2655417 C123.526331,94.4727593 122.678634,92.6622018 121.528965,90.8337527 L121.860075,92.1883799 C122.230998,93.7337228 122.548115,95.1563713 122.811429,96.4563253 C121.783312,96.6161068 120.680339,96.7998024 119.538648,97.0202405 L119.097695,94.5977789 L119.097695,94.5977789 C118.704965,92.4520678 118.310421,87.6670756 118.240915,85.2156022 L118.223125,84.5458558 C118.178204,83.4208306 118.008637,81.6309866 117.714423,79.176324 L117.805226,80.8817298 C117.885843,82.4765069 117.935899,83.7393984 117.955395,84.6704041 L117.959632,84.8962413 C118.016211,88.3363357 117.960159,91.577324 118.15061,94.3729069 L118.199099,95.0100227 C118.261416,95.7469034 118.30305,96.4987096 118.324001,97.2654414 C117.915627,97.3533528 117.505264,97.44506 117.093157,97.5423825 L117.021426,96.3354464 C116.87273,93.6644008 116.767694,90.629266 116.705638,87.2305284 C116.427076,91.2641235 116.294046,94.766075 116.306549,97.7363827 C115.803793,97.863326 115.299851,97.9991294 114.797399,98.1447939 C114.571371,96.276079 114.094538,94.8242979 113.367247,93.7892891 C113.549558,95.2661524 113.573743,96.858122 113.439802,98.565198 C111.108069,99.3351148 108.863877,100.340819 106.980122,101.685426 C107.863133,93.5116103 107.28195,88.1956647 107.144258,79.2624733 L107.113973,76.575161 C107.054367,69.3140581 107.241078,66.9210928 108.260863,63.7366935 C109.898037,58.6244263 113.775394,58.6099978 116.293239,61.1476553 Z" id="路径" fill="url(#linearGradient-9)" filter="url(#filter-10)" mask="url(#mask-7)"></path>
            </g>
            <g id="编组-13" transform="translate(44.952215, 23.110714)">
                <g id="路径-18" transform="translate(0.000000, 0.861091)">
                    <mask id="mask-13" fill="white">
                        <use xlink:href="#path-12"></use>
                    </mask>
                    <use id="蒙版" fill="url(#linearGradient-11)" xlink:href="#path-12"></use>
                </g>
                <path d="M1.13113512,7.79563393 C1.13113512,11.2035902 5.22645123,13.1012781 14.7643751,13.1012781 C24.3022989,13.1012781 36.3098789,5.47601867 56.1996146,13.1012781 C76.0893503,20.7265375 86.0899522,8.08465058 86.0899522,5.59887611 C86.0899522,3.11310163 80.3346429,-2.6363946 64.45429,1.39189194 C48.573937,5.42017848 30.3428711,3.07816395 22.6576797,1.39189194 C14.9724884,-0.294380069 1.13113512,0.861090546 1.13113512,7.79563393 Z" id="路径-17" fill="url(#linearGradient-14)"></path>
            </g>
            <g id="路径-20" transform="translate(53.617897, 50.227022)">
                <mask id="mask-17" fill="white">
                    <use xlink:href="#path-16"></use>
                </mask>
                <g id="蒙版">
                    <use fill="black" fill-opacity="1" filter="url(#filter-18)" xlink:href="#path-16"></use>
                    <use fill="url(#linearGradient-15)" fill-rule="evenodd" xlink:href="#path-16"></use>
                </g>
                <path d="M65.1050375,2.61591994 C66.0548092,5.79332189 68.2532648,8.48090487 71.7004041,10.6786689 L63.6364001,11.9974293 L60.4299622,3.32454184 C62.5969074,-0.325274706 64.1552658,-0.561482006 65.1050375,2.61591994 Z" fill="#E17D00" filter="url(#filter-19)" mask="url(#mask-17)"></path>
            </g>
            <g id="路径-19" transform="translate(133.276761, 72.499408) rotate(-2.000000) translate(-133.276761, -72.499408) translate(107.776761, 50.824408)">
                <mask id="mask-22" fill="white">
                    <use xlink:href="#path-21"></use>
                </mask>
                <use id="蒙版" fill="url(#linearGradient-20)" transform="translate(24.311380, 21.173088) rotate(11.000000) translate(-24.311380, -21.173088) " xlink:href="#path-21"></use>
                <path d="M9.44146341,3.46221979 C9.44146341,7.24705342 10.0343738,12.5263796 17.6242606,18.8159484 C25.2141475,25.1055171 8.44771803,20.7270934 5.57768834,12.9971478 C2.70765865,5.26720216 1.48884851,-2.36779594 4.83204563,-4.15176355 C8.17524274,-5.93573116 9.44146341,-0.322613834 9.44146341,3.46221979 Z" fill="url(#linearGradient-23)" filter="url(#filter-24)" mask="url(#mask-22)" transform="translate(11.198328, 8.663864) rotate(15.000000) translate(-11.198328, -8.663864) "></path>
            </g>
            <g id="路径-21" transform="translate(124.803510, 78.857159) rotate(10.000000) translate(-124.803510, -78.857159) translate(105.678510, 53.357159)">
                <mask id="mask-27" fill="white">
                    <use xlink:href="#path-26"></use>
                </mask>
                <use id="蒙版" fill="url(#linearGradient-25)" xlink:href="#path-26"></use>
                <path d="M17.5637213,30.8949181 C19.321972,28.4699195 23.6329614,28.2552838 28.8914807,29.0927378 C34.15,29.9301918 43.5048857,45.3620355 44.1121945,48.2313902 C44.7195033,51.1007448 39.6772235,61.0850518 34.2843521,55.5476187 C28.8914807,50.0101855 15.8054705,33.3199167 17.5637213,30.8949181 Z" fill="url(#linearGradient-28)" mask="url(#mask-27)"></path>
            </g>
            <path d="M133.578951,94.575836 C136.829596,93.5799997 137.929332,94.2919366 139.552368,98.037354 C140.634392,100.534299 138.086892,101.482322 131.909869,100.881423 C130.855493,97.3415893 131.411854,95.2397269 133.578951,94.575836 Z" id="路径-32" fill="#DC7A00"></path>
            <path d="M139.837843,98.440912 C142.305332,100.927816 146.517249,108.474369 147.99593,115.155818 L148.083008,115.563755 C149.103908,120.531707 150.405154,125.052658 151.538472,128.646426 C151.951678,129.956707 152.285051,131.875949 152.655947,132.610082 C152.196988,132.822824 151.301689,132.998044 150.105641,133.186833 C149.562577,131.751697 148.899315,130.433158 148.116898,129.230054 C148.570249,130.617469 148.973904,131.976158 149.327863,133.306122 L147.61474,133.558799 L147.61474,133.558799 C147.070935,131.766016 146.223238,129.955459 145.073569,128.12701 C145.589999,130.204022 146.017487,132.078213 146.356033,133.749582 C145.327916,133.909364 144.224943,134.093059 143.083252,134.313497 L142.642299,131.891036 L142.642299,131.891036 C142.26742,129.842857 141.890889,125.389879 141.796981,122.857148 L141.767729,121.839113 C141.722808,120.714087 141.55324,118.924243 141.259027,116.469581 L141.369348,118.566767 C141.44487,120.106229 141.489833,121.313807 141.504236,122.189498 C141.560815,125.629592 141.504763,128.870581 141.695214,131.666164 L141.743703,132.303279 C141.80602,133.04016 141.847654,133.791966 141.868605,134.558698 C141.46023,134.64661 141.049868,134.738317 140.637761,134.835639 L140.56603,133.628703 C140.417334,130.957658 140.312297,127.922523 140.250242,124.523785 C139.971679,128.55738 139.838649,132.059332 139.851153,135.029639 C139.348397,135.156583 138.844455,135.292386 138.342003,135.438051 C138.115975,133.569336 137.639142,132.117555 136.911851,131.082546 C137.094162,132.559409 137.118347,134.151379 136.984406,135.858455 C134.652673,136.628372 132.408481,137.634076 130.524726,138.978683 C131.407737,130.804867 130.826554,125.488922 130.688862,116.55573 L130.658577,113.868418 C130.598971,106.607315 130.785681,104.21435 131.805467,101.02995 C133.44264,95.9176831 137.319997,95.9032546 139.837843,98.440912 Z" id="路径" fill="url(#linearGradient-29)"></path>
            <path d="M136.38394,101.404216 C135.861742,103.07005 135.72361,108.640501 135.582766,113.7706 C135.561559,114.543048 135.561559,115.397175 135.115977,115.87703 C133.978579,110.391212 133.878802,103.700106 134.645377,101.404216 C135.411952,99.1083257 136.984766,99.4875551 136.38394,101.404216 Z" id="路径-31" fill="#FFE247" filter="url(#filter-30)"></path>
            <path d="M151.331521,90.2875913 C150.134005,89.3287523 148.780379,89.7222618 148.411245,90.2875913 C147.92227,89.0037676 147.548941,88.1891016 147.291259,87.8435932 C148.794345,87.6567278 150.016607,87.8725278 150.958044,88.4909931 C152.3702,89.4186911 152.529038,91.2464304 151.331521,90.2875913 Z" id="路径-33" fill="#DC6700"></path>
            <g id="¥" fill-rule="nonzero">
                <use fill="black" fill-opacity="1" filter="url(#filter-33)" xlink:href="#path-32"></use>
                <use fill="#FFFFFF" xlink:href="#path-32"></use>
                <use fill="url(#linearGradient-31)" xlink:href="#path-32"></use>
                <use fill="black" fill-opacity="1" filter="url(#filter-34)" xlink:href="#path-32"></use>
            </g>
        </g>
    </g>
</svg>