<?xml version="1.0" encoding="UTF-8"?>
<svg width="180px" height="180px" viewBox="0 0 180 180" version="1.1" xmlns="http://www.w3.org/2000/svg" xmlns:xlink="http://www.w3.org/1999/xlink">
    <!-- Generator: Sketch 58 (84663) - https://sketch.com -->
    <title>安逸花_红包</title>
    <desc>Created with Sketch.</desc>
    <defs>
        <radialGradient cx="45.7864901%" cy="72.3866637%" fx="45.7864901%" fy="72.3866637%" r="94.8003722%" gradientTransform="translate(0.457865,0.723867),scale(0.893082,1.000000),rotate(-34.907715),scale(1.000000,1.048548),translate(-0.457865,-0.723867)" id="radialGradient-1">
            <stop stop-color="#FF5A4A" offset="0%"></stop>
            <stop stop-color="#FF2D2D" offset="100%"></stop>
        </radialGradient>
        <path d="M4.80857143,7.43142857 L119.34,7.43142857 C126.099965,7.43142857 131.58,12.9114632 131.58,19.6714286 L131.58,119.34 C131.58,126.099965 126.099965,131.58 119.34,131.58 L4.80857143,131.58 C-1.95139391,131.58 -7.43142857,126.099965 -7.43142857,119.34 L-7.43142857,19.6714286 C-7.43142857,12.9114632 -1.95139391,7.43142857 4.80857143,7.43142857 Z" id="path-2"></path>
        <filter x="-5.4%" y="-6.0%" width="110.8%" height="112.1%" filterUnits="objectBoundingBox" id="filter-4">
            <feGaussianBlur stdDeviation="2" in="SourceAlpha" result="shadowBlurInner1"></feGaussianBlur>
            <feOffset dx="-11" dy="0" in="shadowBlurInner1" result="shadowOffsetInner1"></feOffset>
            <feComposite in="shadowOffsetInner1" in2="SourceAlpha" operator="arithmetic" k2="-1" k3="1" result="shadowInnerInner1"></feComposite>
            <feColorMatrix values="0 0 0 0 1   0 0 0 0 0.188804651   0 0 0 0 0.17116997  0 0 0 1 0" type="matrix" in="shadowInnerInner1" result="shadowMatrixInner1"></feColorMatrix>
            <feGaussianBlur stdDeviation="1.5" in="SourceAlpha" result="shadowBlurInner2"></feGaussianBlur>
            <feOffset dx="-3" dy="0" in="shadowBlurInner2" result="shadowOffsetInner2"></feOffset>
            <feComposite in="shadowOffsetInner2" in2="SourceAlpha" operator="arithmetic" k2="-1" k3="1" result="shadowInnerInner2"></feComposite>
            <feColorMatrix values="0 0 0 0 1   0 0 0 0 0.563352864   0 0 0 0 0.434527439  0 0 0 1 0" type="matrix" in="shadowInnerInner2" result="shadowMatrixInner2"></feColorMatrix>
            <feMerge>
                <feMergeNode in="shadowMatrixInner1"></feMergeNode>
                <feMergeNode in="shadowMatrixInner2"></feMergeNode>
            </feMerge>
        </filter>
        <linearGradient x1="24.9023438%" y1="50%" x2="100%" y2="50%" id="linearGradient-5">
            <stop stop-color="#FF9F4C" offset="0%"></stop>
            <stop stop-color="#FC6518" offset="71.9318393%"></stop>
            <stop stop-color="#FF4439" offset="100%"></stop>
        </linearGradient>
        <linearGradient x1="0%" y1="93.8766892%" x2="100%" y2="93.8766892%" id="linearGradient-6">
            <stop stop-color="#EA2C07" stop-opacity="0.135407561" offset="0%"></stop>
            <stop stop-color="#DD1502" offset="17.2232614%"></stop>
            <stop stop-color="#DD1600" offset="49.6795224%"></stop>
            <stop stop-color="#E31400" offset="83.55455%"></stop>
            <stop stop-color="#E02816" stop-opacity="0.217548077" offset="100%"></stop>
        </linearGradient>
        <radialGradient cx="31.3297755%" cy="38.561022%" fx="31.3297755%" fy="38.561022%" r="86.6370249%" gradientTransform="translate(0.313298,0.385610),scale(0.781690,1.000000),rotate(56.547471),scale(1.000000,1.360570),translate(-0.313298,-0.385610)" id="radialGradient-7">
            <stop stop-color="#FF6448" offset="0%"></stop>
            <stop stop-color="#FD4040" offset="100%"></stop>
        </radialGradient>
        <linearGradient x1="0%" y1="53.5609564%" x2="100%" y2="72.2979091%" id="linearGradient-8">
            <stop stop-color="#FCD588" offset="0%"></stop>
            <stop stop-color="#FFF0AF" offset="13.3573021%"></stop>
            <stop stop-color="#FFD177" offset="32.4781757%"></stop>
            <stop stop-color="#FFD177" offset="72.3425567%"></stop>
            <stop stop-color="#FFD178" offset="90.3782928%"></stop>
            <stop stop-color="#FFD178" offset="100%"></stop>
        </linearGradient>
        <linearGradient x1="46.2584538%" y1="0%" x2="46.2584538%" y2="50%" id="linearGradient-9">
            <stop stop-color="#FCD588" stop-opacity="0" offset="0%"></stop>
            <stop stop-color="#FCD485" stop-opacity="0.837583705" offset="16.2416295%"></stop>
            <stop stop-color="#FFD178" stop-opacity="0" offset="100%"></stop>
        </linearGradient>
        <filter x="-114.3%" y="-114.3%" width="328.6%" height="328.6%" filterUnits="objectBoundingBox" id="filter-10">
            <feGaussianBlur stdDeviation="27.9771429" in="SourceGraphic"></feGaussianBlur>
        </filter>
        <filter x="-12.7%" y="-150.0%" width="125.4%" height="400.0%" filterUnits="objectBoundingBox" id="filter-11">
            <feGaussianBlur stdDeviation="5.24571429" in="SourceGraphic"></feGaussianBlur>
        </filter>
        <filter x="-25.7%" y="-450.0%" width="151.4%" height="1000.0%" filterUnits="objectBoundingBox" id="filter-12">
            <feGaussianBlur stdDeviation="5.24571429" in="SourceGraphic"></feGaussianBlur>
        </filter>
        <linearGradient x1="14.0666625%" y1="55.7936201%" x2="64.3558%" y2="52.4346849%" id="linearGradient-13">
            <stop stop-color="#E21713" offset="0%"></stop>
            <stop stop-color="#FF3532" stop-opacity="0" offset="100%"></stop>
        </linearGradient>
        <linearGradient x1="97.6074219%" y1="74.9240451%" x2="0%" y2="74.9240451%" id="linearGradient-14">
            <stop stop-color="#F27C22" offset="0%"></stop>
            <stop stop-color="#E4691F" offset="52.9764882%"></stop>
            <stop stop-color="#FF8426" offset="100%"></stop>
        </linearGradient>
        <circle id="path-15" cx="23.6057143" cy="25.3542857" r="23.6057143"></circle>
        <filter x="-12.7%" y="-6.4%" width="125.4%" height="125.4%" filterUnits="objectBoundingBox" id="filter-16">
            <feOffset dx="0" dy="3" in="SourceAlpha" result="shadowOffsetOuter1"></feOffset>
            <feGaussianBlur stdDeviation="1.5" in="shadowOffsetOuter1" result="shadowBlurOuter1"></feGaussianBlur>
            <feColorMatrix values="0 0 0 0 0.905882353   0 0 0 0 0.11372549   0 0 0 0 0.0980392157  0 0 0 0.5 0" type="matrix" in="shadowBlurOuter1"></feColorMatrix>
        </filter>
        <linearGradient x1="31.5248843%" y1="8.76555266%" x2="62.3625579%" y2="96.6308594%" id="linearGradient-17">
            <stop stop-color="#FFE4CA" offset="0%"></stop>
            <stop stop-color="#FFAE4D" offset="100%"></stop>
        </linearGradient>
        <circle id="path-18" cx="23.6057143" cy="23.6057143" r="23.6057143"></circle>
        <filter x="0.0%" y="0.0%" width="100.0%" height="100.0%" filterUnits="objectBoundingBox" id="filter-19">
            <feOffset dx="0" dy="0" in="SourceAlpha" result="shadowOffsetInner1"></feOffset>
            <feComposite in="shadowOffsetInner1" in2="SourceAlpha" operator="arithmetic" k2="-1" k3="1" result="shadowInnerInner1"></feComposite>
            <feColorMatrix values="0 0 0 0 1   0 0 0 0 0.775656535   0 0 0 0 0.379325457  0 0 0 1 0" type="matrix" in="shadowInnerInner1"></feColorMatrix>
        </filter>
        <linearGradient x1="37.0371943%" y1="5.4857337%" x2="60.3175951%" y2="92.2150985%" id="linearGradient-20">
            <stop stop-color="#FFDFBF" offset="0%"></stop>
            <stop stop-color="#FF991F" offset="100%"></stop>
        </linearGradient>
        <linearGradient x1="29.5282779%" y1="6.25%" x2="56.863536%" y2="100%" id="linearGradient-21">
            <stop stop-color="#F4A141" offset="0%"></stop>
            <stop stop-color="#FFE5B4" offset="100%"></stop>
        </linearGradient>
        <linearGradient x1="42.5130606%" y1="7.2593689%" x2="50%" y2="100%" id="linearGradient-22">
            <stop stop-color="#F38200" offset="0%"></stop>
            <stop stop-color="#D94C11" offset="100%"></stop>
        </linearGradient>
        <path d="M6.32794291,19.6551721 C6.32794291,14.7465915 10.3372922,10.8300928 15.0742222,11.3850304 C18.6706337,11.8064689 21.5854015,14.8952729 21.9825331,18.7070664 C22.5056205,23.7276816 18.810914,27.9771429 14.1801822,27.9771429 C6.62134608,27.9771429 4.19657143,20.9519462 4.19657143,20.9519462 C6.18963839,23.686323 13.0095332,25.5636876 15.3300855,23.0931679 L15.3300855,23.0931679 L18.3382089,19.9054176 C18.4686103,19.7672067 18.4686103,19.542614 18.3382089,19.4038796 L18.3382089,19.4038796 L14.4162878,15.2481295 C14.2858864,15.109395 14.074478,15.109395 13.9435827,15.2481295 L13.9435827,15.2481295 L10.0221555,19.4038796 C9.8917541,19.542614 9.8917541,19.7672067 10.0221555,19.9054176 L10.0221555,19.9054176 L13.3760402,23.4601597 C12.4617485,23.5025654 9.705043,23.4313658 7.17061261,21.429402 C6.64752515,21.0158164 6.3289308,20.3577441 6.32794291,19.6661662 L6.32794291,19.6661662 Z M3.01460978,4.34672419 C6.24779048,5.50337928 0.472744968,12.0688026 5.59542857,20.8943219 C-2.46100631,13.7314943 -0.403015692,3.1238024 3.01460978,4.34672419 Z M14.995709,0.836408833 C17.5309091,4.35840125 6.96958955,6.60933601 5.95732249,16.6446293 C3.71220482,4.72958188 12.5491451,-2.5618567 14.995709,0.836408833 Z M26.1950655,6.55799615 C26.9869139,12.042145 13.5440027,7.3164579 6.99428571,14.165642 C11.0764182,5.62902748 25.4299549,1.25611328 26.1950655,6.55799615 Z" id="path-23"></path>
        <filter x="-3.8%" y="-3.6%" width="107.6%" height="114.3%" filterUnits="objectBoundingBox" id="filter-24">
            <feOffset dx="0" dy="2" in="SourceAlpha" result="shadowOffsetOuter1"></feOffset>
            <feColorMatrix values="0 0 0 0 1   0 0 0 0 0.843986649   0 0 0 0 0.677572409  0 0 0 1 0" type="matrix" in="shadowOffsetOuter1"></feColorMatrix>
        </filter>
        <filter x="-171.4%" y="-171.4%" width="442.9%" height="442.9%" filterUnits="objectBoundingBox" id="filter-25">
            <feGaussianBlur stdDeviation="6.99428571" in="SourceGraphic"></feGaussianBlur>
        </filter>
    </defs>
    <g id="李向楠" stroke="none" stroke-width="1" fill="none" fill-rule="evenodd">
        <g id="安逸花_红包（红色版）">
            <g id="红包-2备份" transform="translate(13.500000, 18.372857)">
                <g id="红包">
                    <ellipse id="椭圆形" fill="#FFE6E6" cx="76.5" cy="128.957143" rx="76.5" ry="19.6714286"></ellipse>
                    <g id="椭圆形" transform="translate(15.300000, 0.000000)">
                        <mask id="mask-3" fill="white">
                            <use xlink:href="#path-2"></use>
                        </mask>
                        <g id="蒙版" transform="translate(62.074286, 69.505714) rotate(-270.000000) translate(-62.074286, -69.505714) ">
                            <use fill="url(#radialGradient-1)" fill-rule="evenodd" xlink:href="#path-2"></use>
                            <use fill="black" fill-opacity="1" filter="url(#filter-4)" xlink:href="#path-2"></use>
                        </g>
                        <rect id="蒙版" stroke="url(#linearGradient-5)" stroke-width="2.62285714" mask="url(#mask-3)" transform="translate(62.074286, 70.817143) rotate(-270.000000) translate(-62.074286, -70.817143) " x="-5.24571429" y="13.9885714" width="134.64" height="113.657143" rx="8.74285714"></rect>
                        <polygon id="矩形" fill="url(#linearGradient-6)" mask="url(#mask-3)" points="0 -33.2228571 124.148571 -33.2228571 124.148571 47.2114286 62.0742857 63.8228571 0 47.2114286"></polygon>
                        <path d="M17.4857143,-37.1571429 L106.662857,-37.1571429 C117.527087,-37.1571429 126.334286,-28.3499443 126.334286,-17.4857143 L126.334286,24.9739842 C126.334286,32.9656412 121.49943,40.1630521 114.101118,43.1848981 L69.5125463,61.3971315 C64.7448889,63.3444845 59.4036825,63.3444845 54.6360251,61.3971315 L10.0474537,43.1848981 C2.64914121,40.1630521 -2.18571429,32.9656412 -2.18571429,24.9739842 L-2.18571429,-17.4857143 C-2.18571429,-28.3499443 6.62148428,-37.1571429 17.4857143,-37.1571429 Z" id="矩形" stroke="url(#linearGradient-8)" stroke-width="4.37142857" fill="url(#radialGradient-7)" mask="url(#mask-3)"></path>
                        <path d="M19.2342857,-2.22044605e-16 L104.914286,-2.22044605e-16 C113.122815,1.31838984e-16 119.777143,6.6543278 119.777143,14.8628571 L119.777143,34.1150486 C119.777143,40.8144271 115.29521,46.6857531 108.832864,48.452038 L65.9928641,60.1610442 C63.4275257,60.8622012 60.7210458,60.8622012 58.1557073,60.1610442 L15.3157073,48.452038 C8.85336171,46.6857531 4.37142857,40.8144271 4.37142857,34.1150486 L4.37142857,14.8628571 C4.37142857,6.6543278 11.0257564,3.19883009e-15 19.2342857,-2.22044605e-16 Z" id="矩形" stroke="url(#linearGradient-9)" stroke-width="1.74857143" mask="url(#mask-3)"></path>
                        <circle fill="#FFA76C" filter="url(#filter-10)" mask="url(#mask-3)" cx="36.72" cy="5.24571429" r="36.72"></circle>
                        <rect id="矩形" fill="#FF8C63" filter="url(#filter-11)" mask="url(#mask-3)" x="0" y="-5.24571429" width="124.148571" height="10.4914286"></rect>
                        <ellipse fill="#FFE190" filter="url(#filter-12)" mask="url(#mask-3)" cx="48.0857143" cy="5.24571429" rx="30.6" ry="1.74857143"></ellipse>
                        <path d="M52.0310993,79.7308443 C71.6952706,89.3479872 97.2707671,90.3789442 127.095444,90.3789442 C156.92012,90.3789442 150.144484,66.8376914 126.148158,56.12513 C102.151833,45.4125686 85.68,38.9920329 68.3889509,33.5725714 C50.4630548,44.6919793 32.366928,70.1137015 52.0310993,79.7308443 Z" id="路径-9" fill="url(#linearGradient-13)" mask="url(#mask-3)"></path>
                    </g>
                    <g id="编组-8" transform="translate(54.642857, 32.785714)">
                        <g id="椭圆形">
                            <use fill="black" fill-opacity="1" filter="url(#filter-16)" xlink:href="#path-15"></use>
                            <use fill="url(#linearGradient-14)" fill-rule="evenodd" xlink:href="#path-15"></use>
                        </g>
                        <g id="椭圆形">
                            <use fill="url(#linearGradient-17)" fill-rule="evenodd" xlink:href="#path-18"></use>
                            <use fill="black" fill-opacity="1" filter="url(#filter-19)" xlink:href="#path-18"></use>
                        </g>
                        <circle id="椭圆形" stroke="url(#linearGradient-21)" stroke-width="1.275" fill="url(#linearGradient-20)" cx="23.6057143" cy="23.6057143" r="18.5967857"></circle>
                    </g>
                    <g id="编组" transform="translate(65.571429, 41.528571)">
                        <g id="形状结合">
                            <use fill="black" fill-opacity="1" filter="url(#filter-24)" xlink:href="#path-23"></use>
                            <use fill="url(#linearGradient-22)" fill-rule="evenodd" xlink:href="#path-23"></use>
                        </g>
                    </g>
                    <circle id="椭圆形" fill="#FFFFFF" filter="url(#filter-25)" cx="69.9428571" cy="41.9657143" r="6.12"></circle>
                </g>
            </g>
        </g>
    </g>
</svg>